<svg version="1.1" xmlns="http://www.w3.org/2000/svg" xmlns:xlink="http://www.w3.org/1999/xlink" width="734.3017578125" height="200"><defs/><g><g transform="translate(-54,-350) scale(1,1)"><rect fill="#C0C0C0" stroke="none" x="247" y="503" width="155.630859375" height="44" opacity="0.2"/></g><g transform="translate(-54,-350) scale(1,1)"><rect fill="#ffffff" stroke="none" x="240" y="496" width="155.630859375" height="44"/></g><g transform="translate(-54,-350) scale(1,1)"><path fill="none" stroke="#000000" d="M 240 496 L 395.630859375 496 L 395.630859375 540 L 240 540 L 240 496 Z Z" stroke-miterlimit="10"/></g><g transform="translate(-54,-350) scale(1,1)"><path fill="none" stroke="#000000" d="M 240 521 L 395.630859375 521" stroke-miterlimit="10"/></g><g transform="translate(-54,-350) scale(1,1)"><path fill="none" stroke="#000000" d="M 240 531 L 395.630859375 531" stroke-miterlimit="10"/></g><g transform="translate(-54,-350) scale(1,1)"><g><path fill="none" stroke="none"/><text fill="#000000" stroke="none" font-family="Arial" font-size="13px" font-style="normal" font-weight="bold" text-decoration="none" x="250.2509765625" y="515.5">MenuBarActionListener</text></g></g><g transform="translate(-54,-350) scale(1,1)"><rect fill="#C0C0C0" stroke="none" x="463" y="503" width="149.13720703125" height="44" opacity="0.2"/></g><g transform="translate(-54,-350) scale(1,1)"><rect fill="#ffffff" stroke="none" x="456" y="496" width="149.13720703125" height="44"/></g><g transform="translate(-54,-350) scale(1,1)"><path fill="none" stroke="#000000" d="M 456 496 L 605.13720703125 496 L 605.13720703125 540 L 456 540 L 456 496 Z Z" stroke-miterlimit="10"/></g><g transform="translate(-54,-350) scale(1,1)"><path fill="none" stroke="#000000" d="M 456 521 L 605.13720703125 521" stroke-miterlimit="10"/></g><g transform="translate(-54,-350) scale(1,1)"><path fill="none" stroke="#000000" d="M 456 531 L 605.13720703125 531" stroke-miterlimit="10"/></g><g transform="translate(-54,-350) scale(1,1)"><g><path fill="none" stroke="none"/><text fill="#000000" stroke="none" font-family="Arial" font-size="13px" font-style="normal" font-weight="bold" text-decoration="none" x="473.490478515625" y="515.5">PdfAreaMouseClick</text></g></g><g transform="translate(-54,-350) scale(1,1)"><rect fill="#C0C0C0" stroke="none" x="183" y="367" width="100.0126953125" height="44" opacity="0.2"/></g><g transform="translate(-54,-350) scale(1,1)"><rect fill="#ffffff" stroke="none" x="176" y="360" width="100.0126953125" height="44"/></g><g transform="translate(-54,-350) scale(1,1)"><path fill="none" stroke="#000000" d="M 176 360 L 276.0126953125 360 L 276.0126953125 404 L 176 404 L 176 360 Z Z" stroke-miterlimit="10"/></g><g transform="translate(-54,-350) scale(1,1)"><path fill="none" stroke="#000000" d="M 176 385 L 276.0126953125 385" stroke-miterlimit="10"/></g><g transform="translate(-54,-350) scale(1,1)"><path fill="none" stroke="#000000" d="M 176 395 L 276.0126953125 395" stroke-miterlimit="10"/></g><g transform="translate(-54,-350) scale(1,1)"><g><path fill="none" stroke="none"/><text fill="#000000" stroke="none" font-family="Arial" font-size="13px" font-style="normal" font-weight="bold" text-decoration="none" x="184.81640625" y="379.5">ActionListener</text></g></g><g transform="translate(-54,-350) scale(1,1)"><path fill="none" stroke="#000000" d="M 302 495 L 241 405" stroke-miterlimit="10"/></g><g transform="translate(-54,-350) scale(1,1)"><path fill="#FFFFFF" stroke="none" d="M 259.3726846906465 417.1014237698745 L 241 405 L 245.4344511236681 426.54844874304877"/></g><g transform="translate(-54,-350) scale(1,1)"><path fill="none" stroke="#000000" d="M 259.3726846906465 417.1014237698745 L 241 405 L 245.4344511236681 426.54844874304877 L 259.3726846906465 417.1014237698745" stroke-miterlimit="10"/></g><g transform="translate(-54,-350) scale(1,1)"><rect fill="#C0C0C0" stroke="none" x="583" y="367" width="99.2890625" height="44" opacity="0.2"/></g><g transform="translate(-54,-350) scale(1,1)"><rect fill="#ffffff" stroke="none" x="576" y="360" width="99.2890625" height="44"/></g><g transform="translate(-54,-350) scale(1,1)"><path fill="none" stroke="#000000" d="M 576 360 L 675.2890625 360 L 675.2890625 404 L 576 404 L 576 360 Z Z" stroke-miterlimit="10"/></g><g transform="translate(-54,-350) scale(1,1)"><path fill="none" stroke="#000000" d="M 576 385 L 675.2890625 385" stroke-miterlimit="10"/></g><g transform="translate(-54,-350) scale(1,1)"><path fill="none" stroke="#000000" d="M 576 395 L 675.2890625 395" stroke-miterlimit="10"/></g><g transform="translate(-54,-350) scale(1,1)"><g><path fill="none" stroke="none"/><text fill="#000000" stroke="none" font-family="Arial" font-size="13px" font-style="normal" font-weight="bold" text-decoration="none" x="583.369140625" y="379.5">MouseAdapter</text></g></g><g transform="translate(-54,-350) scale(1,1)"><path fill="none" stroke="#000000" d="M 546 495 L 609 405" stroke-miterlimit="10"/></g><g transform="translate(-54,-350) scale(1,1)"><path fill="#FFFFFF" stroke="none" d="M 604.2413199337292 426.47917512445196 L 609 405 L 590.4470346708492 416.82317544043605"/></g><g transform="translate(-54,-350) scale(1,1)"><path fill="none" stroke="#000000" d="M 604.2413199337292 426.47917512445196 L 609 405 L 590.4470346708492 416.82317544043605 L 604.2413199337292 426.47917512445196" stroke-miterlimit="10"/></g><g transform="translate(-54,-350) scale(1,1)"><rect fill="#C0C0C0" stroke="none" x="647" y="503" width="138.3017578125" height="44" opacity="0.2"/></g><g transform="translate(-54,-350) scale(1,1)"><rect fill="#ffffff" stroke="none" x="640" y="496" width="138.3017578125" height="44"/></g><g transform="translate(-54,-350) scale(1,1)"><path fill="none" stroke="#000000" d="M 640 496 L 778.3017578125 496 L 778.3017578125 540 L 640 540 L 640 496 Z Z" stroke-miterlimit="10"/></g><g transform="translate(-54,-350) scale(1,1)"><path fill="none" stroke="#000000" d="M 640 521 L 778.3017578125 521" stroke-miterlimit="10"/></g><g transform="translate(-54,-350) scale(1,1)"><path fill="none" stroke="#000000" d="M 640 531 L 778.3017578125 531" stroke-miterlimit="10"/></g><g transform="translate(-54,-350) scale(1,1)"><g><path fill="none" stroke="none"/><text fill="#000000" stroke="none" font-family="Arial" font-size="13px" font-style="normal" font-weight="bold" text-decoration="none" x="647.73095703125" y="515.5">PdfAreaMouseWheel</text></g></g><g transform="translate(-54,-350) scale(1,1)"><path fill="none" stroke="#000000" d="M 695 495 L 639 405" stroke-miterlimit="10"/></g><g transform="translate(-54,-350) scale(1,1)"><path fill="#FFFFFF" stroke="none" d="M 656.8861583031772 417.80958005376 L 639 405 L 642.589682905387 426.70516474571826"/></g><g transform="translate(-54,-350) scale(1,1)"><path fill="none" stroke="#000000" d="M 656.8861583031772 417.80958005376 L 639 405 L 642.589682905387 426.70516474571826 L 656.8861583031772 417.80958005376" stroke-miterlimit="10"/></g><g transform="translate(-54,-350) scale(1,1)"><rect fill="#C0C0C0" stroke="none" x="71" y="503" width="149.12451171875" height="44" opacity="0.2"/></g><g transform="translate(-54,-350) scale(1,1)"><rect fill="#ffffff" stroke="none" x="64" y="496" width="149.12451171875" height="44"/></g><g transform="translate(-54,-350) scale(1,1)"><path fill="none" stroke="#000000" d="M 64 496 L 213.12451171875 496 L 213.12451171875 540 L 64 540 L 64 496 Z Z" stroke-miterlimit="10"/></g><g transform="translate(-54,-350) scale(1,1)"><path fill="none" stroke="#000000" d="M 64 521 L 213.12451171875 521" stroke-miterlimit="10"/></g><g transform="translate(-54,-350) scale(1,1)"><path fill="none" stroke="#000000" d="M 64 531 L 213.12451171875 531" stroke-miterlimit="10"/></g><g transform="translate(-54,-350) scale(1,1)"><g><path fill="none" stroke="none"/><text fill="#000000" stroke="none" font-family="Arial" font-size="13px" font-style="normal" font-weight="bold" text-decoration="none" x="74.61279296875" y="515.5">ToolBarActionListener</text></g></g><g transform="translate(-54,-350) scale(1,1)"><path fill="none" stroke="#000000" d="M 153 495 L 211 405" stroke-miterlimit="10"/></g><g transform="translate(-54,-350) scale(1,1)"><path fill="#FFFFFF" stroke="none" d="M 207.0665283456209 426.6455030143491 L 211 405 L 192.91293355594337 417.52429748322356"/></g><g transform="translate(-54,-350) scale(1,1)"><path fill="none" stroke="#000000" d="M 207.0665283456209 426.6455030143491 L 211 405 L 192.91293355594337 417.52429748322356 L 207.0665283456209 426.6455030143491" stroke-miterlimit="10"/></g></g></svg>