<svg version="1.1" xmlns="http://www.w3.org/2000/svg" xmlns:xlink="http://www.w3.org/1999/xlink" width="465.13720703125" height="200"><defs/><g><g transform="translate(-230,-350) scale(1,1)"><rect fill="#C0C0C0" stroke="none" x="247" y="503" width="155.630859375" height="44" opacity="0.2"/></g><g transform="translate(-230,-350) scale(1,1)"><rect fill="#ffffff" stroke="none" x="240" y="496" width="155.630859375" height="44"/></g><g transform="translate(-230,-350) scale(1,1)"><path fill="none" stroke="#000000" d="M 240 496 L 395.630859375 496 L 395.630859375 540 L 240 540 L 240 496 Z Z" stroke-miterlimit="10"/></g><g transform="translate(-230,-350) scale(1,1)"><path fill="none" stroke="#000000" d="M 240 521 L 395.630859375 521" stroke-miterlimit="10"/></g><g transform="translate(-230,-350) scale(1,1)"><path fill="none" stroke="#000000" d="M 240 531 L 395.630859375 531" stroke-miterlimit="10"/></g><g transform="translate(-230,-350) scale(1,1)"><g><path fill="none" stroke="none"/><text fill="#000000" stroke="none" font-family="Arial" font-size="13px" font-style="normal" font-weight="bold" text-decoration="none" x="250.2509765625" y="515.5">MenuBarActionListener</text></g></g><g transform="translate(-230,-350) scale(1,1)"><rect fill="#C0C0C0" stroke="none" x="543" y="503" width="149.13720703125" height="44" opacity="0.2"/></g><g transform="translate(-230,-350) scale(1,1)"><rect fill="#ffffff" stroke="none" x="536" y="496" width="149.13720703125" height="44"/></g><g transform="translate(-230,-350) scale(1,1)"><path fill="none" stroke="#000000" d="M 536 496 L 685.13720703125 496 L 685.13720703125 540 L 536 540 L 536 496 Z Z" stroke-miterlimit="10"/></g><g transform="translate(-230,-350) scale(1,1)"><path fill="none" stroke="#000000" d="M 536 521 L 685.13720703125 521" stroke-miterlimit="10"/></g><g transform="translate(-230,-350) scale(1,1)"><path fill="none" stroke="#000000" d="M 536 531 L 685.13720703125 531" stroke-miterlimit="10"/></g><g transform="translate(-230,-350) scale(1,1)"><g><path fill="none" stroke="none"/><text fill="#000000" stroke="none" font-family="Arial" font-size="13px" font-style="normal" font-weight="bold" text-decoration="none" x="544.806884765625" y="515.5">PdfAreaMouseAdapter</text></g></g><g transform="translate(-230,-350) scale(1,1)"><rect fill="#C0C0C0" stroke="none" x="271" y="367" width="100.0126953125" height="44" opacity="0.2"/></g><g transform="translate(-230,-350) scale(1,1)"><rect fill="#ffffff" stroke="none" x="264" y="360" width="100.0126953125" height="44"/></g><g transform="translate(-230,-350) scale(1,1)"><path fill="none" stroke="#000000" d="M 264 360 L 364.0126953125 360 L 364.0126953125 404 L 264 404 L 264 360 Z Z" stroke-miterlimit="10"/></g><g transform="translate(-230,-350) scale(1,1)"><path fill="none" stroke="#000000" d="M 264 385 L 364.0126953125 385" stroke-miterlimit="10"/></g><g transform="translate(-230,-350) scale(1,1)"><path fill="none" stroke="#000000" d="M 264 395 L 364.0126953125 395" stroke-miterlimit="10"/></g><g transform="translate(-230,-350) scale(1,1)"><g><path fill="none" stroke="none"/><text fill="#000000" stroke="none" font-family="Arial" font-size="13px" font-style="normal" font-weight="bold" text-decoration="none" x="272.81640625" y="379.5">ActionListener</text></g></g><g transform="translate(-230,-350) scale(1,1)"><path fill="none" stroke="#000000" d="M 316 495 L 315 405" stroke-miterlimit="10"/></g><g transform="translate(-230,-350) scale(1,1)"><path fill="#FFFFFF" stroke="none" d="M 323.6443391463766 425.2305561150064 L 315 405 L 306.80730741318325 425.4176342453752"/></g><g transform="translate(-230,-350) scale(1,1)"><path fill="none" stroke="#000000" d="M 323.6443391463766 425.2305561150064 L 315 405 L 306.80730741318325 425.4176342453752 L 323.6443391463766 425.2305561150064" stroke-miterlimit="10"/></g><g transform="translate(-230,-350) scale(1,1)"><rect fill="#C0C0C0" stroke="none" x="567" y="367" width="99.2890625" height="44" opacity="0.2"/></g><g transform="translate(-230,-350) scale(1,1)"><rect fill="#ffffff" stroke="none" x="560" y="360" width="99.2890625" height="44"/></g><g transform="translate(-230,-350) scale(1,1)"><path fill="none" stroke="#000000" d="M 560 360 L 659.2890625 360 L 659.2890625 404 L 560 404 L 560 360 Z Z" stroke-miterlimit="10"/></g><g transform="translate(-230,-350) scale(1,1)"><path fill="none" stroke="#000000" d="M 560 385 L 659.2890625 385" stroke-miterlimit="10"/></g><g transform="translate(-230,-350) scale(1,1)"><path fill="none" stroke="#000000" d="M 560 395 L 659.2890625 395" stroke-miterlimit="10"/></g><g transform="translate(-230,-350) scale(1,1)"><g><path fill="none" stroke="none"/><text fill="#000000" stroke="none" font-family="Arial" font-size="13px" font-style="normal" font-weight="bold" text-decoration="none" x="567.369140625" y="379.5">MouseAdapter</text></g></g><g transform="translate(-230,-350) scale(1,1)"><path fill="none" stroke="#000000" d="M 610 495 L 609 405" stroke-miterlimit="10"/></g><g transform="translate(-230,-350) scale(1,1)"><path fill="#FFFFFF" stroke="none" d="M 617.6443391463765 425.2305561150064 L 609 405 L 600.8073074131833 425.4176342453752"/></g><g transform="translate(-230,-350) scale(1,1)"><path fill="none" stroke="#000000" d="M 617.6443391463765 425.2305561150064 L 609 405 L 600.8073074131833 425.4176342453752 L 617.6443391463765 425.2305561150064" stroke-miterlimit="10"/></g></g></svg>