<svg version="1.1" xmlns="http://www.w3.org/2000/svg" xmlns:xlink="http://www.w3.org/1999/xlink" width="289.7109375" height="64"><defs/><g><g transform="translate(-294,-358) scale(1,1)"><rect fill="#C0C0C0" stroke="none" x="311" y="375" width="70.39453125" height="44" opacity="0.2"/></g><g transform="translate(-294,-358) scale(1,1)"><rect fill="#ffffff" stroke="none" x="304" y="368" width="70.39453125" height="44"/></g><g transform="translate(-294,-358) scale(1,1)"><path fill="none" stroke="#000000" d="M 304 368 L 374.39453125 368 L 374.39453125 412 L 304 412 L 304 368 Z Z" stroke-miterlimit="10"/></g><g transform="translate(-294,-358) scale(1,1)"><path fill="none" stroke="#000000" d="M 304 393 L 374.39453125 393" stroke-miterlimit="10"/></g><g transform="translate(-294,-358) scale(1,1)"><path fill="none" stroke="#000000" d="M 304 403 L 374.39453125 403" stroke-miterlimit="10"/></g><g transform="translate(-294,-358) scale(1,1)"><g><path fill="none" stroke="none"/><text fill="#000000" stroke="none" font-family="Arial" font-size="13px" font-style="normal" font-weight="bold" text-decoration="none" x="310.655029296875" y="387.5">PdfObject</text></g></g><g transform="translate(-294,-358) scale(1,1)"><rect fill="#C0C0C0" stroke="none" x="519" y="375" width="61.7109375" height="44" opacity="0.2"/></g><g transform="translate(-294,-358) scale(1,1)"><rect fill="#ffffff" stroke="none" x="512" y="368" width="61.7109375" height="44"/></g><g transform="translate(-294,-358) scale(1,1)"><path fill="none" stroke="#000000" d="M 512 368 L 573.7109375 368 L 573.7109375 412 L 512 412 L 512 368 Z Z" stroke-miterlimit="10"/></g><g transform="translate(-294,-358) scale(1,1)"><path fill="none" stroke="#000000" d="M 512 393 L 573.7109375 393" stroke-miterlimit="10"/></g><g transform="translate(-294,-358) scale(1,1)"><path fill="none" stroke="#000000" d="M 512 403 L 573.7109375 403" stroke-miterlimit="10"/></g><g transform="translate(-294,-358) scale(1,1)"><g><path fill="none" stroke="none"/><text fill="#000000" stroke="none" font-family="Arial" font-size="13px" font-style="normal" font-weight="bold" text-decoration="none" x="518.6455078125" y="387.5">Notation</text></g></g><g transform="translate(-294,-358) scale(1,1)"><path fill="none" stroke="#000000" d="M 375 390 L 511 390" stroke-miterlimit="10"/></g><g transform="translate(-294,-358) scale(1,1)"><path fill="none" stroke="#000000" d="M 500.83732514237585 394.209517756016 L 511 390 L 500.83732514237585 385.790482243984" stroke-miterlimit="10"/></g><g transform="translate(-294,-358) scale(1,1)"><g><path fill="none" stroke="none"/><text fill="#000000" stroke="none" font-family="Arial" font-size="13px" font-style="normal" font-weight="normal" text-decoration="none" x="417.13134765625" y="387.5">-besitzt</text></g></g><g transform="translate(-294,-358) scale(1,1)"><g><path fill="none" stroke="none"/><text fill="#000000" stroke="none" font-family="Arial" font-size="13px" font-style="normal" font-weight="normal" text-decoration="none" x="391.9951171875" y="408.5">1</text></g></g><g transform="translate(-294,-358) scale(1,1)"><g><path fill="none" stroke="none"/><text fill="#000000" stroke="none" font-family="Arial" font-size="13px" font-style="normal" font-weight="normal" text-decoration="none" x="486.10302734375" y="408.5">*</text></g></g></g></svg>