<svg version="1.1" xmlns="http://www.w3.org/2000/svg" xmlns:xlink="http://www.w3.org/1999/xlink" width="500" height="388"><defs/><g><g transform="translate(-134,-86) scale(1,1)"><rect fill="#C0C0C0" stroke="none" x="327" y="103" width="304" height="368" opacity="0.2"/></g><g transform="translate(-134,-86) scale(1,1)"><rect fill="#ffffff" stroke="none" x="320" y="96" width="304" height="368"/></g><g transform="translate(-134,-86) scale(1,1)"><path fill="none" stroke="#000000" d="M 320 96 L 624 96 L 624 464 L 320 464 L 320 96 Z Z" stroke-miterlimit="10"/></g><g transform="translate(-134,-86) scale(1,1)"><g><path fill="none" stroke="none"/><text fill="#000000" stroke="none" font-family="Arial" font-size="13px" font-style="normal" font-weight="bold" text-decoration="none" x="429.734130859375" y="115.5">PDF Notations</text></g></g><g transform="translate(-134,-86) scale(1,1)"><path fill="#ffffff" stroke="none" d="M 171.24162571022728 257.68 C 171.24162571022728 252.886167936 175.12746803517274 249 179.9208984375 249 C 184.71432883982726 249 188.60017116477272 252.886167936 188.60017116477272 257.68 C 188.60017116477272 262.473832064 184.71432883982726 266.36 179.9208984375 266.36 C 175.12746803517274 266.36 171.24162571022728 262.473832064 171.24162571022728 257.68 Z"/></g><g transform="translate(-134,-86) scale(1,1)"><path fill="none" stroke="#000000" d="M 171.24162571022728 257.68 C 171.24162571022728 252.886167936 175.12746803517274 249 179.9208984375 249 C 184.71432883982726 249 188.60017116477272 252.886167936 188.60017116477272 257.68 C 188.60017116477272 262.473832064 184.71432883982726 266.36 179.9208984375 266.36 C 175.12746803517274 266.36 171.24162571022728 262.473832064 171.24162571022728 257.68 Z" stroke-miterlimit="10"/></g><g transform="translate(-134,-86) scale(1,1)"><path fill="none" stroke="#000000" d="M 179.9208984375 266.36 L 179.9208984375 283.64" stroke-miterlimit="10"/></g><g transform="translate(-134,-86) scale(1,1)"><path fill="none" stroke="#000000" d="M 170.73108025568183 272.84 L 189.11071661931817 272.84" stroke-miterlimit="10"/></g><g transform="translate(-134,-86) scale(1,1)"><path fill="none" stroke="#000000" d="M 179.9208984375 283.64 L 167.15726207386365 301" stroke-miterlimit="10"/></g><g transform="translate(-134,-86) scale(1,1)"><path fill="none" stroke="#000000" d="M 179.9208984375 283.64 L 192.68453480113635 301" stroke-miterlimit="10"/></g><g transform="translate(-134,-86) scale(1,1)"><g><path fill="none" stroke="none"/><text fill="#000000" stroke="none" font-family="Arial" font-size="13px" font-style="normal" font-weight="bold" text-decoration="none" x="150.65185546875" y="321.5">Anwender</text></g></g><g transform="translate(-134,-86) scale(1,1)"><path fill="#C0C0C0" stroke="none" d="M 407 184 C 407 174.6111584 441.9217856 167 485 167 C 528.0782144 167 563 174.6111584 563 184 C 563 193.3888416 528.0782144 201 485 201 C 441.9217856 201 407 193.3888416 407 184 Z" opacity="0.2"/></g><g transform="translate(-134,-86) scale(1,1)"><path fill="#ffffff" stroke="none" d="M 400 177 C 400 167.6111584 434.9217856 160 478 160 C 521.0782144 160 556 167.6111584 556 177 C 556 186.3888416 521.0782144 194 478 194 C 434.9217856 194 400 186.3888416 400 177 Z"/></g><g transform="translate(-134,-86) scale(1,1)"><path fill="none" stroke="#000000" d="M 400 177 C 400 167.6111584 434.9217856 160 478 160 C 521.0782144 160 556 167.6111584 556 177 C 556 186.3888416 521.0782144 194 478 194 C 434.9217856 194 400 186.3888416 400 177 Z" stroke-miterlimit="10"/></g><g transform="translate(-134,-86) scale(1,1)"><g><path fill="none" stroke="none"/><text fill="#000000" stroke="none" font-family="Arial" font-size="13px" font-style="normal" font-weight="bold" text-decoration="none" x="430.681396484375" y="184">PDF importieren</text></g></g><g transform="translate(-134,-86) scale(1,1)"><path fill="#C0C0C0" stroke="none" d="M 375 240 C 375 230.6111584 422.4578112 223 481 223 C 539.5421888 223 587 230.6111584 587 240 C 587 249.3888416 539.5421888 257 481 257 C 422.4578112 257 375 249.3888416 375 240 Z" opacity="0.2"/></g><g transform="translate(-134,-86) scale(1,1)"><path fill="#ffffff" stroke="none" d="M 368 233 C 368 223.6111584 415.4578112 216 474 216 C 532.5421888 216 580 223.6111584 580 233 C 580 242.3888416 532.5421888 250 474 250 C 415.4578112 250 368 242.3888416 368 233 Z"/></g><g transform="translate(-134,-86) scale(1,1)"><path fill="none" stroke="#000000" d="M 368 233 C 368 223.6111584 415.4578112 216 474 216 C 532.5421888 216 580 223.6111584 580 233 C 580 242.3888416 532.5421888 250 474 250 C 415.4578112 250 368 242.3888416 368 233 Z" stroke-miterlimit="10"/></g><g transform="translate(-134,-86) scale(1,1)"><g><path fill="none" stroke="none"/><text fill="#000000" stroke="none" font-family="Arial" font-size="13px" font-style="normal" font-weight="bold" text-decoration="none" x="408.94921875" y="240">Notationen hinzufügen</text></g></g><g transform="translate(-134,-86) scale(1,1)"><path fill="#C0C0C0" stroke="none" d="M 375 296 C 375 286.6111584 423.129384 279 482.5 279 C 541.870616 279 590 286.6111584 590 296 C 590 305.3888416 541.870616 313 482.5 313 C 423.129384 313 375 305.3888416 375 296 Z" opacity="0.2"/></g><g transform="translate(-134,-86) scale(1,1)"><path fill="#ffffff" stroke="none" d="M 368 289 C 368 279.6111584 416.129384 272 475.5 272 C 534.870616 272 583 279.6111584 583 289 C 583 298.3888416 534.870616 306 475.5 306 C 416.129384 306 368 298.3888416 368 289 Z"/></g><g transform="translate(-134,-86) scale(1,1)"><path fill="none" stroke="#000000" d="M 368 289 C 368 279.6111584 416.129384 272 475.5 272 C 534.870616 272 583 279.6111584 583 289 C 583 298.3888416 534.870616 306 475.5 306 C 416.129384 306 368 298.3888416 368 289 Z" stroke-miterlimit="10"/></g><g transform="translate(-134,-86) scale(1,1)"><g><path fill="none" stroke="none"/><text fill="#000000" stroke="none" font-family="Arial" font-size="13px" font-style="normal" font-weight="bold" text-decoration="none" x="411.53466796875" y="296">Notationen bearbeiten</text></g></g><g transform="translate(-134,-86) scale(1,1)"><path fill="#C0C0C0" stroke="none" d="M 399 360 C 399 350.6111584 436.3842192 343 482.5 343 C 528.6157808 343 566 350.6111584 566 360 C 566 369.3888416 528.6157808 377 482.5 377 C 436.3842192 377 399 369.3888416 399 360 Z" opacity="0.2"/></g><g transform="translate(-134,-86) scale(1,1)"><path fill="#ffffff" stroke="none" d="M 392 353 C 392 343.6111584 429.3842192 336 475.5 336 C 521.6157808 336 559 343.6111584 559 353 C 559 362.3888416 521.6157808 370 475.5 370 C 429.3842192 370 392 362.3888416 392 353 Z"/></g><g transform="translate(-134,-86) scale(1,1)"><path fill="none" stroke="#000000" d="M 392 353 C 392 343.6111584 429.3842192 336 475.5 336 C 521.6157808 336 559 343.6111584 559 353 C 559 362.3888416 521.6157808 370 475.5 370 C 429.3842192 370 392 362.3888416 392 353 Z" stroke-miterlimit="10"/></g><g transform="translate(-134,-86) scale(1,1)"><g><path fill="none" stroke="none"/><text fill="#000000" stroke="none" font-family="Arial" font-size="13px" font-style="normal" font-weight="bold" text-decoration="none" x="425.280517578125" y="360">Projekt speichern</text></g></g><g transform="translate(-134,-86) scale(1,1)"><path fill="#C0C0C0" stroke="none" d="M 375 424 C 375 414.6111584 422.9055264 407 482 407 C 541.0944736 407 589 414.6111584 589 424 C 589 433.3888416 541.0944736 441 482 441 C 422.9055264 441 375 433.3888416 375 424 Z" opacity="0.2"/></g><g transform="translate(-134,-86) scale(1,1)"><path fill="#ffffff" stroke="none" d="M 368 417 C 368 407.6111584 415.9055264 400 475 400 C 534.0944736 400 582 407.6111584 582 417 C 582 426.3888416 534.0944736 434 475 434 C 415.9055264 434 368 426.3888416 368 417 Z"/></g><g transform="translate(-134,-86) scale(1,1)"><path fill="none" stroke="#000000" d="M 368 417 C 368 407.6111584 415.9055264 400 475 400 C 534.0944736 400 582 407.6111584 582 417 C 582 426.3888416 534.0944736 434 475 434 C 415.9055264 434 368 426.3888416 368 417 Z" stroke-miterlimit="10"/></g><g transform="translate(-134,-86) scale(1,1)"><g><path fill="none" stroke="none"/><text fill="#000000" stroke="none" font-family="Arial" font-size="13px" font-style="normal" font-weight="bold" text-decoration="none" x="414.656005859375" y="424">Projekt erneut öffnen</text></g></g><g transform="translate(-134,-86) scale(1,1)"><path fill="none" stroke="#000000" d="M 429 195 L 217 273" stroke-miterlimit="10"/></g><g transform="translate(-134,-86) scale(1,1)"><path fill="none" stroke="#000000" d="M 376 251 L 217 280" stroke-miterlimit="10"/></g><g transform="translate(-134,-86) scale(1,1)"><path fill="none" stroke="#000000" d="M 367 288 L 217 287" stroke-miterlimit="10"/></g><g transform="translate(-134,-86) scale(1,1)"><path fill="none" stroke="#000000" d="M 394 335 L 217 295" stroke-miterlimit="10"/></g><g transform="translate(-134,-86) scale(1,1)"><path fill="none" stroke="#000000" d="M 434 399 L 217 304" stroke-miterlimit="10"/></g></g></svg>