<svg version="1.1" xmlns="http://www.w3.org/2000/svg" xmlns:xlink="http://www.w3.org/1999/xlink" width="1001.01904296875" height="632"><defs/><g><g transform="translate(-118,-78) scale(1,1)"><rect fill="#C0C0C0" stroke="none" x="671" y="215" width="77.630859375" height="44" opacity="0.2"/></g><g transform="translate(-118,-78) scale(1,1)"><rect fill="#ffffff" stroke="none" x="664" y="208" width="77.630859375" height="44"/></g><g transform="translate(-118,-78) scale(1,1)"><path fill="none" stroke="#000000" d="M 664 208 L 741.630859375 208 L 741.630859375 252 L 664 252 L 664 208 Z Z" stroke-miterlimit="10"/></g><g transform="translate(-118,-78) scale(1,1)"><path fill="none" stroke="#000000" d="M 664 233 L 741.630859375 233" stroke-miterlimit="10"/></g><g transform="translate(-118,-78) scale(1,1)"><path fill="none" stroke="#000000" d="M 664 243 L 741.630859375 243" stroke-miterlimit="10"/></g><g transform="translate(-118,-78) scale(1,1)"><g><path fill="none" stroke="none"/><text fill="#000000" stroke="none" font-family="Arial" font-size="13px" font-style="normal" font-weight="bold" text-decoration="none" x="669.947265625" y="227.5">MainFrame</text></g></g><g transform="translate(-118,-78) scale(1,1)"><rect fill="#C0C0C0" stroke="none" x="687" y="95" width="55.2490234375" height="44" opacity="0.2"/></g><g transform="translate(-118,-78) scale(1,1)"><rect fill="#ffffff" stroke="none" x="680" y="88" width="55.2490234375" height="44"/></g><g transform="translate(-118,-78) scale(1,1)"><path fill="none" stroke="#000000" d="M 680 88 L 735.2490234375 88 L 735.2490234375 132 L 680 132 L 680 88 Z Z" stroke-miterlimit="10"/></g><g transform="translate(-118,-78) scale(1,1)"><path fill="none" stroke="#000000" d="M 680 113 L 735.2490234375 113" stroke-miterlimit="10"/></g><g transform="translate(-118,-78) scale(1,1)"><path fill="none" stroke="#000000" d="M 680 123 L 735.2490234375 123" stroke-miterlimit="10"/></g><g transform="translate(-118,-78) scale(1,1)"><g><path fill="none" stroke="none"/><text fill="#000000" stroke="none" font-family="Arial" font-size="13px" font-style="normal" font-weight="bold" text-decoration="none" x="685.594970703125" y="107.5">JFrame</text></g></g><g transform="translate(-118,-78) scale(1,1)"><path fill="none" stroke="#000000" d="M 704 208 L 704 132" stroke-miterlimit="10"/></g><g transform="translate(-118,-78) scale(1,1)"><path fill="#FFFFFF" stroke="none" d="M 712.419035512032 152.3253497152483 L 704 132 L 695.580964487968 152.3253497152483"/></g><g transform="translate(-118,-78) scale(1,1)"><path fill="none" stroke="#000000" d="M 712.419035512032 152.3253497152483 L 704 132 L 695.580964487968 152.3253497152483 L 712.419035512032 152.3253497152483" stroke-miterlimit="10"/></g><g transform="translate(-118,-78) scale(1,1)"><rect fill="#C0C0C0" stroke="none" x="135" y="279" width="133.2490234375" height="44" opacity="0.2"/></g><g transform="translate(-118,-78) scale(1,1)"><rect fill="#ffffff" stroke="none" x="128" y="272" width="133.2490234375" height="44"/></g><g transform="translate(-118,-78) scale(1,1)"><path fill="none" stroke="#000000" d="M 128 272 L 261.2490234375 272 L 261.2490234375 316 L 128 316 L 128 272 Z Z" stroke-miterlimit="10"/></g><g transform="translate(-118,-78) scale(1,1)"><path fill="none" stroke="#000000" d="M 128 297 L 261.2490234375 297" stroke-miterlimit="10"/></g><g transform="translate(-118,-78) scale(1,1)"><path fill="none" stroke="#000000" d="M 128 307 L 261.2490234375 307" stroke-miterlimit="10"/></g><g transform="translate(-118,-78) scale(1,1)"><g><path fill="none" stroke="none"/><text fill="#000000" stroke="none" font-family="Arial" font-size="13px" font-style="normal" font-weight="bold" text-decoration="none" x="135.3818359375" y="291.5">MainFrameMenuBar</text></g></g><g transform="translate(-118,-78) scale(1,1)"><rect fill="#C0C0C0" stroke="none" x="655" y="335" width="109.41357421875" height="44" opacity="0.2"/></g><g transform="translate(-118,-78) scale(1,1)"><rect fill="#ffffff" stroke="none" x="648" y="328" width="109.41357421875" height="44"/></g><g transform="translate(-118,-78) scale(1,1)"><path fill="none" stroke="#000000" d="M 648 328 L 757.41357421875 328 L 757.41357421875 372 L 648 372 L 648 328 Z Z" stroke-miterlimit="10"/></g><g transform="translate(-118,-78) scale(1,1)"><path fill="none" stroke="#000000" d="M 648 353 L 757.41357421875 353" stroke-miterlimit="10"/></g><g transform="translate(-118,-78) scale(1,1)"><path fill="none" stroke="#000000" d="M 648 363 L 757.41357421875 363" stroke-miterlimit="10"/></g><g transform="translate(-118,-78) scale(1,1)"><g><path fill="none" stroke="none"/><text fill="#000000" stroke="none" font-family="Arial" font-size="13px" font-style="normal" font-weight="bold" text-decoration="none" x="655.372314453125" y="347.5">CenterSplitPane</text></g></g><g transform="translate(-118,-78) scale(1,1)"><rect fill="#C0C0C0" stroke="none" x="343" y="271" width="126.74267578125" height="44" opacity="0.2"/></g><g transform="translate(-118,-78) scale(1,1)"><rect fill="#ffffff" stroke="none" x="336" y="264" width="126.74267578125" height="44"/></g><g transform="translate(-118,-78) scale(1,1)"><path fill="none" stroke="#000000" d="M 336 264 L 462.74267578125 264 L 462.74267578125 308 L 336 308 L 336 264 Z Z" stroke-miterlimit="10"/></g><g transform="translate(-118,-78) scale(1,1)"><path fill="none" stroke="#000000" d="M 336 289 L 462.74267578125 289" stroke-miterlimit="10"/></g><g transform="translate(-118,-78) scale(1,1)"><path fill="none" stroke="#000000" d="M 336 299 L 462.74267578125 299" stroke-miterlimit="10"/></g><g transform="translate(-118,-78) scale(1,1)"><g><path fill="none" stroke="none"/><text fill="#000000" stroke="none" font-family="Arial" font-size="13px" font-style="normal" font-weight="bold" text-decoration="none" x="343.74365234375" y="283.5">MainFrameToolBar</text></g></g><g transform="translate(-118,-78) scale(1,1)"><rect fill="#C0C0C0" stroke="none" x="567" y="447" width="97.13720703125" height="44" opacity="0.2"/></g><g transform="translate(-118,-78) scale(1,1)"><rect fill="#ffffff" stroke="none" x="560" y="440" width="97.13720703125" height="44"/></g><g transform="translate(-118,-78) scale(1,1)"><path fill="none" stroke="#000000" d="M 560 440 L 657.13720703125 440 L 657.13720703125 484 L 560 484 L 560 440 Z Z" stroke-miterlimit="10"/></g><g transform="translate(-118,-78) scale(1,1)"><path fill="none" stroke="#000000" d="M 560 465 L 657.13720703125 465" stroke-miterlimit="10"/></g><g transform="translate(-118,-78) scale(1,1)"><path fill="none" stroke="#000000" d="M 560 475 L 657.13720703125 475" stroke-miterlimit="10"/></g><g transform="translate(-118,-78) scale(1,1)"><g><path fill="none" stroke="none"/><text fill="#000000" stroke="none" font-family="Arial" font-size="13px" font-style="normal" font-weight="bold" text-decoration="none" x="567.378662109375" y="459.5">PdfScrollPane</text></g></g><g transform="translate(-118,-78) scale(1,1)"><rect fill="#C0C0C0" stroke="none" x="815" y="471" width="120.947265625" height="44" opacity="0.2"/></g><g transform="translate(-118,-78) scale(1,1)"><rect fill="#ffffff" stroke="none" x="808" y="464" width="120.947265625" height="44"/></g><g transform="translate(-118,-78) scale(1,1)"><path fill="none" stroke="#000000" d="M 808 464 L 928.947265625 464 L 928.947265625 508 L 808 508 L 808 464 Z Z" stroke-miterlimit="10"/></g><g transform="translate(-118,-78) scale(1,1)"><path fill="none" stroke="#000000" d="M 808 489 L 928.947265625 489" stroke-miterlimit="10"/></g><g transform="translate(-118,-78) scale(1,1)"><path fill="none" stroke="#000000" d="M 808 499 L 928.947265625 499" stroke-miterlimit="10"/></g><g transform="translate(-118,-78) scale(1,1)"><g><path fill="none" stroke="none"/><text fill="#000000" stroke="none" font-family="Arial" font-size="13px" font-style="normal" font-weight="bold" text-decoration="none" x="816.438720703125" y="483.5">NotationSplitPane</text></g></g><g transform="translate(-118,-78) scale(1,1)"><rect fill="#C0C0C0" stroke="none" x="639" y="551" width="152.01904296875" height="44" opacity="0.2"/></g><g transform="translate(-118,-78) scale(1,1)"><rect fill="#ffffff" stroke="none" x="632" y="544" width="152.01904296875" height="44"/></g><g transform="translate(-118,-78) scale(1,1)"><path fill="none" stroke="#000000" d="M 632 544 L 784.01904296875 544 L 784.01904296875 588 L 632 588 L 632 544 Z Z" stroke-miterlimit="10"/></g><g transform="translate(-118,-78) scale(1,1)"><path fill="none" stroke="#000000" d="M 632 569 L 784.01904296875 569" stroke-miterlimit="10"/></g><g transform="translate(-118,-78) scale(1,1)"><path fill="none" stroke="#000000" d="M 632 579 L 784.01904296875 579" stroke-miterlimit="10"/></g><g transform="translate(-118,-78) scale(1,1)"><g><path fill="none" stroke="none"/><text fill="#000000" stroke="none" font-family="Arial" font-size="13px" font-style="normal" font-weight="bold" text-decoration="none" x="642.2509765625" y="563.5">NotationListScrollPane</text></g></g><g transform="translate(-118,-78) scale(1,1)"><rect fill="#C0C0C0" stroke="none" x="951" y="551" width="165.01904296875" height="44" opacity="0.2"/></g><g transform="translate(-118,-78) scale(1,1)"><rect fill="#ffffff" stroke="none" x="944" y="544" width="165.01904296875" height="44"/></g><g transform="translate(-118,-78) scale(1,1)"><path fill="none" stroke="#000000" d="M 944 544 L 1109.01904296875 544 L 1109.01904296875 588 L 944 588 L 944 544 Z Z" stroke-miterlimit="10"/></g><g transform="translate(-118,-78) scale(1,1)"><path fill="none" stroke="#000000" d="M 944 569 L 1109.01904296875 569" stroke-miterlimit="10"/></g><g transform="translate(-118,-78) scale(1,1)"><path fill="none" stroke="#000000" d="M 944 579 L 1109.01904296875 579" stroke-miterlimit="10"/></g><g transform="translate(-118,-78) scale(1,1)"><g><path fill="none" stroke="none"/><text fill="#000000" stroke="none" font-family="Arial" font-size="13px" font-style="normal" font-weight="bold" text-decoration="none" x="954.609619140625" y="563.5">NotationEntityScrollPane</text></g></g><g transform="translate(-118,-78) scale(1,1)"><rect fill="#C0C0C0" stroke="none" x="951" y="335" width="75.46630859375" height="44" opacity="0.2"/></g><g transform="translate(-118,-78) scale(1,1)"><rect fill="#ffffff" stroke="none" x="944" y="328" width="75.46630859375" height="44"/></g><g transform="translate(-118,-78) scale(1,1)"><path fill="none" stroke="#000000" d="M 944 328 L 1019.46630859375 328 L 1019.46630859375 372 L 944 372 L 944 328 Z Z" stroke-miterlimit="10"/></g><g transform="translate(-118,-78) scale(1,1)"><path fill="none" stroke="#000000" d="M 944 353 L 1019.46630859375 353" stroke-miterlimit="10"/></g><g transform="translate(-118,-78) scale(1,1)"><path fill="none" stroke="#000000" d="M 944 363 L 1019.46630859375 363" stroke-miterlimit="10"/></g><g transform="translate(-118,-78) scale(1,1)"><g><path fill="none" stroke="none"/><text fill="#000000" stroke="none" font-family="Arial" font-size="13px" font-style="normal" font-weight="bold" text-decoration="none" x="950.658203125" y="347.5">JSplitPane</text></g></g><g transform="translate(-118,-78) scale(1,1)"><path fill="none" stroke="#000000" d="M 758 350 L 943 350" stroke-miterlimit="10"/></g><g transform="translate(-118,-78) scale(1,1)"><path fill="#FFFFFF" stroke="none" d="M 922.6746502847517 358.419035512032 L 943 350 L 922.6746502847517 341.580964487968"/></g><g transform="translate(-118,-78) scale(1,1)"><path fill="none" stroke="#000000" d="M 922.6746502847517 358.419035512032 L 943 350 L 922.6746502847517 341.580964487968 L 922.6746502847517 358.419035512032" stroke-miterlimit="10"/></g><g transform="translate(-118,-78) scale(1,1)"><path fill="none" stroke="#000000" d="M 929 486 L 984 486 L 984 372" stroke-miterlimit="10"/></g><g transform="translate(-118,-78) scale(1,1)"><path fill="#FFFFFF" stroke="none" d="M 992.419035512032 392.3253497152483 L 984 372 L 975.580964487968 392.3253497152483"/></g><g transform="translate(-118,-78) scale(1,1)"><path fill="none" stroke="#000000" d="M 992.419035512032 392.3253497152483 L 984 372 L 975.580964487968 392.3253497152483 L 992.419035512032 392.3253497152483" stroke-miterlimit="10"/></g><g transform="translate(-118,-78) scale(1,1)"><rect fill="#C0C0C0" stroke="none" x="167" y="367" width="71.84814453125" height="44" opacity="0.2"/></g><g transform="translate(-118,-78) scale(1,1)"><rect fill="#ffffff" stroke="none" x="160" y="360" width="71.84814453125" height="44"/></g><g transform="translate(-118,-78) scale(1,1)"><path fill="none" stroke="#000000" d="M 160 360 L 231.84814453125 360 L 231.84814453125 404 L 160 404 L 160 360 Z Z" stroke-miterlimit="10"/></g><g transform="translate(-118,-78) scale(1,1)"><path fill="none" stroke="#000000" d="M 160 385 L 231.84814453125 385" stroke-miterlimit="10"/></g><g transform="translate(-118,-78) scale(1,1)"><path fill="none" stroke="#000000" d="M 160 395 L 231.84814453125 395" stroke-miterlimit="10"/></g><g transform="translate(-118,-78) scale(1,1)"><g><path fill="none" stroke="none"/><text fill="#000000" stroke="none" font-family="Arial" font-size="13px" font-style="normal" font-weight="bold" text-decoration="none" x="166.299560546875" y="379.5">JMenuBar</text></g></g><g transform="translate(-118,-78) scale(1,1)"><rect fill="#C0C0C0" stroke="none" x="375" y="367" width="65.341796875" height="44" opacity="0.2"/></g><g transform="translate(-118,-78) scale(1,1)"><rect fill="#ffffff" stroke="none" x="368" y="360" width="65.341796875" height="44"/></g><g transform="translate(-118,-78) scale(1,1)"><path fill="none" stroke="#000000" d="M 368 360 L 433.341796875 360 L 433.341796875 404 L 368 404 L 368 360 Z Z" stroke-miterlimit="10"/></g><g transform="translate(-118,-78) scale(1,1)"><path fill="none" stroke="#000000" d="M 368 385 L 433.341796875 385" stroke-miterlimit="10"/></g><g transform="translate(-118,-78) scale(1,1)"><path fill="none" stroke="#000000" d="M 368 395 L 433.341796875 395" stroke-miterlimit="10"/></g><g transform="translate(-118,-78) scale(1,1)"><g><path fill="none" stroke="none"/><text fill="#000000" stroke="none" font-family="Arial" font-size="13px" font-style="normal" font-weight="bold" text-decoration="none" x="374.661376953125" y="379.5">JToolBar</text></g></g><g transform="translate(-118,-78) scale(1,1)"><rect fill="#C0C0C0" stroke="none" x="807" y="663" width="83.42626953125" height="44" opacity="0.2"/></g><g transform="translate(-118,-78) scale(1,1)"><rect fill="#ffffff" stroke="none" x="800" y="656" width="83.42626953125" height="44"/></g><g transform="translate(-118,-78) scale(1,1)"><path fill="none" stroke="#000000" d="M 800 656 L 883.42626953125 656 L 883.42626953125 700 L 800 700 L 800 656 Z Z" stroke-miterlimit="10"/></g><g transform="translate(-118,-78) scale(1,1)"><path fill="none" stroke="#000000" d="M 800 681 L 883.42626953125 681" stroke-miterlimit="10"/></g><g transform="translate(-118,-78) scale(1,1)"><path fill="none" stroke="#000000" d="M 800 691 L 883.42626953125 691" stroke-miterlimit="10"/></g><g transform="translate(-118,-78) scale(1,1)"><g><path fill="none" stroke="none"/><text fill="#000000" stroke="none" font-family="Arial" font-size="13px" font-style="normal" font-weight="bold" text-decoration="none" x="807.029541015625" y="675.5">JScrollPane</text></g></g><g transform="translate(-118,-78) scale(1,1)"><path fill="none" stroke="#000000" d="M 608 484 L 608 680 L 800 680" stroke-miterlimit="10"/></g><g transform="translate(-118,-78) scale(1,1)"><path fill="#FFFFFF" stroke="none" d="M 779.6746502847517 688.419035512032 L 800 680 L 779.6746502847517 671.580964487968"/></g><g transform="translate(-118,-78) scale(1,1)"><path fill="none" stroke="#000000" d="M 779.6746502847517 688.419035512032 L 800 680 L 779.6746502847517 671.580964487968 L 779.6746502847517 688.419035512032" stroke-miterlimit="10"/></g><g transform="translate(-118,-78) scale(1,1)"><path fill="none" stroke="#000000" d="M 784 560 L 848 560 L 848 656" stroke-miterlimit="10"/></g><g transform="translate(-118,-78) scale(1,1)"><path fill="#FFFFFF" stroke="none" d="M 839.580964487968 635.6746502847517 L 848 656 L 856.419035512032 635.6746502847517"/></g><g transform="translate(-118,-78) scale(1,1)"><path fill="none" stroke="#000000" d="M 839.580964487968 635.6746502847517 L 848 656 L 856.419035512032 635.6746502847517 L 839.580964487968 635.6746502847517" stroke-miterlimit="10"/></g><g transform="translate(-118,-78) scale(1,1)"><path fill="none" stroke="#000000" d="M 988 588 L 988 678 L 883 678" stroke-miterlimit="10"/></g><g transform="translate(-118,-78) scale(1,1)"><path fill="#FFFFFF" stroke="none" d="M 903.3253497152483 669.580964487968 L 883 678 L 903.3253497152483 686.419035512032"/></g><g transform="translate(-118,-78) scale(1,1)"><path fill="none" stroke="#000000" d="M 903.3253497152483 669.580964487968 L 883 678 L 903.3253497152483 686.419035512032 L 903.3253497152483 669.580964487968" stroke-miterlimit="10"/></g><g transform="translate(-118,-78) scale(1,1)"><path fill="none" stroke="#000000" d="M 399 309 L 400 359" stroke-miterlimit="10"/></g><g transform="translate(-118,-78) scale(1,1)"><path fill="#FFFFFF" stroke="none" d="M 391.17622207280823 338.84706117977817 L 400 359 L 408.01092649261494 338.510367091382"/></g><g transform="translate(-118,-78) scale(1,1)"><path fill="none" stroke="#000000" d="M 391.17622207280823 338.84706117977817 L 400 359 L 408.01092649261494 338.510367091382 L 391.17622207280823 338.84706117977817" stroke-miterlimit="10"/></g><g transform="translate(-118,-78) scale(1,1)"><path fill="none" stroke="#000000" d="M 194 317 L 195 359" stroke-miterlimit="10"/></g><g transform="translate(-118,-78) scale(1,1)"><path fill="#FFFFFF" stroke="none" d="M 186.0995500358249 338.88080542280045 L 195 359 L 202.93285039226967 338.4800125571708"/></g><g transform="translate(-118,-78) scale(1,1)"><path fill="none" stroke="#000000" d="M 186.0995500358249 338.88080542280045 L 195 359 L 202.93285039226967 338.4800125571708 L 186.0995500358249 338.88080542280045" stroke-miterlimit="10"/></g><g transform="translate(-118,-78) scale(1,1)"><path fill="none" stroke="#000000" d="M 664 240 L 399 240 L 399 264" stroke-miterlimit="10"/></g><g transform="translate(-118,-78) scale(1,1)"><path fill="none" stroke="#000000" d="M 394.790482243984 253.83732514237585 L 399 264 L 403.209517756016 253.83732514237585" stroke-miterlimit="10"/></g><g transform="translate(-118,-78) scale(1,1)"><g><path fill="none" stroke="none"/><text fill="#000000" stroke="none" font-family="Arial" font-size="13px" font-style="normal" font-weight="normal" text-decoration="none" x="513.13134765625" y="235.5">-besitzt</text></g></g><g transform="translate(-118,-78) scale(1,1)"><g><path fill="none" stroke="none"/><text fill="#000000" stroke="none" font-family="Arial" font-size="13px" font-style="normal" font-weight="normal" text-decoration="none" x="638.5" y="233.5">1</text></g></g><g transform="translate(-118,-78) scale(1,1)"><g><path fill="none" stroke="none"/><text fill="#000000" stroke="none" font-family="Arial" font-size="13px" font-style="normal" font-weight="normal" text-decoration="none" x="382.5" y="248.5">1</text></g></g><g transform="translate(-118,-78) scale(1,1)"><path fill="none" stroke="#000000" d="M 702 253 L 702 327" stroke-miterlimit="10"/></g><g transform="translate(-118,-78) scale(1,1)"><path fill="none" stroke="#000000" d="M 697.790482243984 316.83732514237585 L 702 327 L 706.209517756016 316.83732514237585" stroke-miterlimit="10"/></g><g transform="translate(-118,-78) scale(1,1)"><g><path fill="none" stroke="none"/><text fill="#000000" stroke="none" font-family="Arial" font-size="13px" font-style="normal" font-weight="normal" text-decoration="none" x="712.13134765625" y="295.5">-enthält</text></g></g><g transform="translate(-118,-78) scale(1,1)"><g><path fill="none" stroke="none"/><text fill="#000000" stroke="none" font-family="Arial" font-size="13px" font-style="normal" font-weight="normal" text-decoration="none" x="685.5" y="280.5">1</text></g></g><g transform="translate(-118,-78) scale(1,1)"><g><path fill="none" stroke="none"/><text fill="#000000" stroke="none" font-family="Arial" font-size="13px" font-style="normal" font-weight="normal" text-decoration="none" x="685.5" y="311.5">1</text></g></g><g transform="translate(-118,-78) scale(1,1)"><path fill="none" stroke="#000000" d="M 672 372 L 672 424 L 608 424 L 608 440" stroke-miterlimit="10"/></g><g transform="translate(-118,-78) scale(1,1)"><path fill="none" stroke="#000000" d="M 603.790482243984 429.83732514237585 L 608 440 L 612.209517756016 429.83732514237585" stroke-miterlimit="10"/></g><g transform="translate(-118,-78) scale(1,1)"><g><path fill="none" stroke="none"/><text fill="#000000" stroke="none" font-family="Arial" font-size="13px" font-style="normal" font-weight="normal" text-decoration="none" x="617.5" y="419.5">-enthält</text></g></g><g transform="translate(-118,-78) scale(1,1)"><g><path fill="none" stroke="none"/><text fill="#000000" stroke="none" font-family="Arial" font-size="13px" font-style="normal" font-weight="normal" text-decoration="none" x="655.5" y="399.5">1</text></g></g><g transform="translate(-118,-78) scale(1,1)"><g><path fill="none" stroke="none"/><text fill="#000000" stroke="none" font-family="Arial" font-size="13px" font-style="normal" font-weight="normal" text-decoration="none" x="591.5" y="424.5">1</text></g></g><g transform="translate(-118,-78) scale(1,1)"><path fill="none" stroke="#000000" d="M 808 496 L 696 496 L 696 544" stroke-miterlimit="10"/></g><g transform="translate(-118,-78) scale(1,1)"><path fill="none" stroke="#000000" d="M 691.790482243984 533.8373251423759 L 696 544 L 700.209517756016 533.8373251423759" stroke-miterlimit="10"/></g><g transform="translate(-118,-78) scale(1,1)"><g><path fill="none" stroke="none"/><text fill="#000000" stroke="none" font-family="Arial" font-size="13px" font-style="normal" font-weight="normal" text-decoration="none" x="712.13134765625" y="492.5">-enthält</text></g></g><g transform="translate(-118,-78) scale(1,1)"><g><path fill="none" stroke="none"/><text fill="#000000" stroke="none" font-family="Arial" font-size="13px" font-style="normal" font-weight="normal" text-decoration="none" x="782.5" y="489.5">1</text></g></g><g transform="translate(-118,-78) scale(1,1)"><g><path fill="none" stroke="none"/><text fill="#000000" stroke="none" font-family="Arial" font-size="13px" font-style="normal" font-weight="normal" text-decoration="none" x="679.5" y="528.5">1</text></g></g><g transform="translate(-118,-78) scale(1,1)"><path fill="none" stroke="#000000" d="M 929 496 L 1048 496 L 1048 544" stroke-miterlimit="10"/></g><g transform="translate(-118,-78) scale(1,1)"><path fill="none" stroke="#000000" d="M 1043.7904822439841 533.8373251423759 L 1048 544 L 1052.2095177560159 533.8373251423759" stroke-miterlimit="10"/></g><g transform="translate(-118,-78) scale(1,1)"><g><path fill="none" stroke="none"/><text fill="#000000" stroke="none" font-family="Arial" font-size="13px" font-style="normal" font-weight="normal" text-decoration="none" x="1024.13134765625" y="491.5">-enthält</text></g></g><g transform="translate(-118,-78) scale(1,1)"><g><path fill="none" stroke="none"/><text fill="#000000" stroke="none" font-family="Arial" font-size="13px" font-style="normal" font-weight="normal" text-decoration="none" x="946.5" y="514.5">1</text></g></g><g transform="translate(-118,-78) scale(1,1)"><g><path fill="none" stroke="none"/><text fill="#000000" stroke="none" font-family="Arial" font-size="13px" font-style="normal" font-weight="normal" text-decoration="none" x="1031.5" y="528.5">1</text></g></g><g transform="translate(-118,-78) scale(1,1)"><path fill="none" stroke="#000000" d="M 730 372 L 730 424 L 872 424 L 872 464" stroke-miterlimit="10"/></g><g transform="translate(-118,-78) scale(1,1)"><path fill="none" stroke="#000000" d="M 867.790482243984 453.83732514237585 L 872 464 L 876.209517756016 453.83732514237585" stroke-miterlimit="10"/></g><g transform="translate(-118,-78) scale(1,1)"><g><path fill="none" stroke="none"/><text fill="#000000" stroke="none" font-family="Arial" font-size="13px" font-style="normal" font-weight="normal" text-decoration="none" x="783.13134765625" y="420.5">-enthält</text></g></g><g transform="translate(-118,-78) scale(1,1)"><g><path fill="none" stroke="none"/><text fill="#000000" stroke="none" font-family="Arial" font-size="13px" font-style="normal" font-weight="normal" text-decoration="none" x="713.5" y="399.5">1</text></g></g><g transform="translate(-118,-78) scale(1,1)"><g><path fill="none" stroke="none"/><text fill="#000000" stroke="none" font-family="Arial" font-size="13px" font-style="normal" font-weight="normal" text-decoration="none" x="855.5" y="448.5">1</text></g></g><g transform="translate(-118,-78) scale(1,1)"><path fill="none" stroke="#000000" d="M 664 216 L 184 216 L 184 272" stroke-miterlimit="10"/></g><g transform="translate(-118,-78) scale(1,1)"><path fill="none" stroke="#000000" d="M 179.790482243984 261.83732514237585 L 184 272 L 188.209517756016 261.83732514237585" stroke-miterlimit="10"/></g><g transform="translate(-118,-78) scale(1,1)"><g><path fill="none" stroke="none"/><text fill="#000000" stroke="none" font-family="Arial" font-size="13px" font-style="normal" font-weight="normal" text-decoration="none" x="401.13134765625" y="211.5">-besitzt</text></g></g><g transform="translate(-118,-78) scale(1,1)"><g><path fill="none" stroke="none"/><text fill="#000000" stroke="none" font-family="Arial" font-size="13px" font-style="normal" font-weight="normal" text-decoration="none" x="638.5" y="209.5">1</text></g></g><g transform="translate(-118,-78) scale(1,1)"><g><path fill="none" stroke="none"/><text fill="#000000" stroke="none" font-family="Arial" font-size="13px" font-style="normal" font-weight="normal" text-decoration="none" x="167.5" y="256.5">1</text></g></g></g></svg>