<svg version="1.1" xmlns="http://www.w3.org/2000/svg" xmlns:xlink="http://www.w3.org/1999/xlink" width="797.341796875" height="560"><defs/><g><g transform="translate(-302,-78) scale(1,1)"><rect fill="#C0C0C0" stroke="none" x="671" y="215" width="77.630859375" height="44" opacity="0.2"/></g><g transform="translate(-302,-78) scale(1,1)"><rect fill="#ffffff" stroke="none" x="664" y="208" width="77.630859375" height="44"/></g><g transform="translate(-302,-78) scale(1,1)"><path fill="none" stroke="#000000" d="M 664 208 L 741.630859375 208 L 741.630859375 252 L 664 252 L 664 208 Z Z" stroke-miterlimit="10"/></g><g transform="translate(-302,-78) scale(1,1)"><path fill="none" stroke="#000000" d="M 664 233 L 741.630859375 233" stroke-miterlimit="10"/></g><g transform="translate(-302,-78) scale(1,1)"><path fill="none" stroke="#000000" d="M 664 243 L 741.630859375 243" stroke-miterlimit="10"/></g><g transform="translate(-302,-78) scale(1,1)"><g><path fill="none" stroke="none"/><text fill="#000000" stroke="none" font-family="Arial" font-size="13px" font-style="normal" font-weight="bold" text-decoration="none" x="669.947265625" y="227.5">MainFrame</text></g></g><g transform="translate(-302,-78) scale(1,1)"><rect fill="#C0C0C0" stroke="none" x="687" y="95" width="55.2490234375" height="44" opacity="0.2"/></g><g transform="translate(-302,-78) scale(1,1)"><rect fill="#ffffff" stroke="none" x="680" y="88" width="55.2490234375" height="44"/></g><g transform="translate(-302,-78) scale(1,1)"><path fill="none" stroke="#000000" d="M 680 88 L 735.2490234375 88 L 735.2490234375 132 L 680 132 L 680 88 Z Z" stroke-miterlimit="10"/></g><g transform="translate(-302,-78) scale(1,1)"><path fill="none" stroke="#000000" d="M 680 113 L 735.2490234375 113" stroke-miterlimit="10"/></g><g transform="translate(-302,-78) scale(1,1)"><path fill="none" stroke="#000000" d="M 680 123 L 735.2490234375 123" stroke-miterlimit="10"/></g><g transform="translate(-302,-78) scale(1,1)"><g><path fill="none" stroke="none"/><text fill="#000000" stroke="none" font-family="Arial" font-size="13px" font-style="normal" font-weight="bold" text-decoration="none" x="685.594970703125" y="107.5">JFrame</text></g></g><g transform="translate(-302,-78) scale(1,1)"><path fill="none" stroke="#000000" d="M 704 208 L 704 132" stroke-miterlimit="10"/></g><g transform="translate(-302,-78) scale(1,1)"><path fill="#FFFFFF" stroke="none" d="M 712.419035512032 152.3253497152483 L 704 132 L 695.580964487968 152.3253497152483"/></g><g transform="translate(-302,-78) scale(1,1)"><path fill="none" stroke="#000000" d="M 712.419035512032 152.3253497152483 L 704 132 L 695.580964487968 152.3253497152483 L 712.419035512032 152.3253497152483" stroke-miterlimit="10"/></g><g transform="translate(-302,-78) scale(1,1)"><rect fill="#C0C0C0" stroke="none" x="447" y="215" width="133.2490234375" height="44" opacity="0.2"/></g><g transform="translate(-302,-78) scale(1,1)"><rect fill="#ffffff" stroke="none" x="440" y="208" width="133.2490234375" height="44"/></g><g transform="translate(-302,-78) scale(1,1)"><path fill="none" stroke="#000000" d="M 440 208 L 573.2490234375 208 L 573.2490234375 252 L 440 252 L 440 208 Z Z" stroke-miterlimit="10"/></g><g transform="translate(-302,-78) scale(1,1)"><path fill="none" stroke="#000000" d="M 440 233 L 573.2490234375 233" stroke-miterlimit="10"/></g><g transform="translate(-302,-78) scale(1,1)"><path fill="none" stroke="#000000" d="M 440 243 L 573.2490234375 243" stroke-miterlimit="10"/></g><g transform="translate(-302,-78) scale(1,1)"><g><path fill="none" stroke="none"/><text fill="#000000" stroke="none" font-family="Arial" font-size="13px" font-style="normal" font-weight="bold" text-decoration="none" x="447.3818359375" y="227.5">MainFrameMenuBar</text></g></g><g transform="translate(-302,-78) scale(1,1)"><rect fill="#C0C0C0" stroke="none" x="655" y="335" width="109.41357421875" height="44" opacity="0.2"/></g><g transform="translate(-302,-78) scale(1,1)"><rect fill="#ffffff" stroke="none" x="648" y="328" width="109.41357421875" height="44"/></g><g transform="translate(-302,-78) scale(1,1)"><path fill="none" stroke="#000000" d="M 648 328 L 757.41357421875 328 L 757.41357421875 372 L 648 372 L 648 328 Z Z" stroke-miterlimit="10"/></g><g transform="translate(-302,-78) scale(1,1)"><path fill="none" stroke="#000000" d="M 648 353 L 757.41357421875 353" stroke-miterlimit="10"/></g><g transform="translate(-302,-78) scale(1,1)"><path fill="none" stroke="#000000" d="M 648 363 L 757.41357421875 363" stroke-miterlimit="10"/></g><g transform="translate(-302,-78) scale(1,1)"><g><path fill="none" stroke="none"/><text fill="#000000" stroke="none" font-family="Arial" font-size="13px" font-style="normal" font-weight="bold" text-decoration="none" x="660.075927734375" y="347.5">PdfObjectView</text></g></g><g transform="translate(-302,-78) scale(1,1)"><rect fill="#C0C0C0" stroke="none" x="831" y="215" width="126.74267578125" height="44" opacity="0.2"/></g><g transform="translate(-302,-78) scale(1,1)"><rect fill="#ffffff" stroke="none" x="824" y="208" width="126.74267578125" height="44"/></g><g transform="translate(-302,-78) scale(1,1)"><path fill="none" stroke="#000000" d="M 824 208 L 950.74267578125 208 L 950.74267578125 252 L 824 252 L 824 208 Z Z" stroke-miterlimit="10"/></g><g transform="translate(-302,-78) scale(1,1)"><path fill="none" stroke="#000000" d="M 824 233 L 950.74267578125 233" stroke-miterlimit="10"/></g><g transform="translate(-302,-78) scale(1,1)"><path fill="none" stroke="#000000" d="M 824 243 L 950.74267578125 243" stroke-miterlimit="10"/></g><g transform="translate(-302,-78) scale(1,1)"><g><path fill="none" stroke="none"/><text fill="#000000" stroke="none" font-family="Arial" font-size="13px" font-style="normal" font-weight="bold" text-decoration="none" x="831.74365234375" y="227.5">MainFrameToolBar</text></g></g><g transform="translate(-302,-78) scale(1,1)"><rect fill="#C0C0C0" stroke="none" x="335" y="495" width="97.13720703125" height="44" opacity="0.2"/></g><g transform="translate(-302,-78) scale(1,1)"><rect fill="#ffffff" stroke="none" x="328" y="488" width="97.13720703125" height="44"/></g><g transform="translate(-302,-78) scale(1,1)"><path fill="none" stroke="#000000" d="M 328 488 L 425.13720703125 488 L 425.13720703125 532 L 328 532 L 328 488 Z Z" stroke-miterlimit="10"/></g><g transform="translate(-302,-78) scale(1,1)"><path fill="none" stroke="#000000" d="M 328 513 L 425.13720703125 513" stroke-miterlimit="10"/></g><g transform="translate(-302,-78) scale(1,1)"><path fill="none" stroke="#000000" d="M 328 523 L 425.13720703125 523" stroke-miterlimit="10"/></g><g transform="translate(-302,-78) scale(1,1)"><g><path fill="none" stroke="none"/><text fill="#000000" stroke="none" font-family="Arial" font-size="13px" font-style="normal" font-weight="bold" text-decoration="none" x="335.378662109375" y="507.5">PdfScrollPane</text></g></g><g transform="translate(-302,-78) scale(1,1)"><rect fill="#C0C0C0" stroke="none" x="927" y="495" width="120.947265625" height="44" opacity="0.2"/></g><g transform="translate(-302,-78) scale(1,1)"><rect fill="#ffffff" stroke="none" x="920" y="488" width="120.947265625" height="44"/></g><g transform="translate(-302,-78) scale(1,1)"><path fill="none" stroke="#000000" d="M 920 488 L 1040.947265625 488 L 1040.947265625 532 L 920 532 L 920 488 Z Z" stroke-miterlimit="10"/></g><g transform="translate(-302,-78) scale(1,1)"><path fill="none" stroke="#000000" d="M 920 513 L 1040.947265625 513" stroke-miterlimit="10"/></g><g transform="translate(-302,-78) scale(1,1)"><path fill="none" stroke="#000000" d="M 920 523 L 1040.947265625 523" stroke-miterlimit="10"/></g><g transform="translate(-302,-78) scale(1,1)"><g><path fill="none" stroke="none"/><text fill="#000000" stroke="none" font-family="Arial" font-size="13px" font-style="normal" font-weight="bold" text-decoration="none" x="928.438720703125" y="507.5">NotationSplitPane</text></g></g><g transform="translate(-302,-78) scale(1,1)"><rect fill="#C0C0C0" stroke="none" x="447" y="495" width="152.01904296875" height="44" opacity="0.2"/></g><g transform="translate(-302,-78) scale(1,1)"><rect fill="#ffffff" stroke="none" x="440" y="488" width="152.01904296875" height="44"/></g><g transform="translate(-302,-78) scale(1,1)"><path fill="none" stroke="#000000" d="M 440 488 L 592.01904296875 488 L 592.01904296875 532 L 440 532 L 440 488 Z Z" stroke-miterlimit="10"/></g><g transform="translate(-302,-78) scale(1,1)"><path fill="none" stroke="#000000" d="M 440 513 L 592.01904296875 513" stroke-miterlimit="10"/></g><g transform="translate(-302,-78) scale(1,1)"><path fill="none" stroke="#000000" d="M 440 523 L 592.01904296875 523" stroke-miterlimit="10"/></g><g transform="translate(-302,-78) scale(1,1)"><g><path fill="none" stroke="none"/><text fill="#000000" stroke="none" font-family="Arial" font-size="13px" font-style="normal" font-weight="bold" text-decoration="none" x="450.2509765625" y="507.5">NotationListScrollPane</text></g></g><g transform="translate(-302,-78) scale(1,1)"><rect fill="#C0C0C0" stroke="none" x="615" y="495" width="165.01904296875" height="44" opacity="0.2"/></g><g transform="translate(-302,-78) scale(1,1)"><rect fill="#ffffff" stroke="none" x="608" y="488" width="165.01904296875" height="44"/></g><g transform="translate(-302,-78) scale(1,1)"><path fill="none" stroke="#000000" d="M 608 488 L 773.01904296875 488 L 773.01904296875 532 L 608 532 L 608 488 Z Z" stroke-miterlimit="10"/></g><g transform="translate(-302,-78) scale(1,1)"><path fill="none" stroke="#000000" d="M 608 513 L 773.01904296875 513" stroke-miterlimit="10"/></g><g transform="translate(-302,-78) scale(1,1)"><path fill="none" stroke="#000000" d="M 608 523 L 773.01904296875 523" stroke-miterlimit="10"/></g><g transform="translate(-302,-78) scale(1,1)"><g><path fill="none" stroke="none"/><text fill="#000000" stroke="none" font-family="Arial" font-size="13px" font-style="normal" font-weight="bold" text-decoration="none" x="618.609619140625" y="507.5">NotationEntityScrollPane</text></g></g><g transform="translate(-302,-78) scale(1,1)"><rect fill="#C0C0C0" stroke="none" x="951" y="583" width="75.46630859375" height="44" opacity="0.2"/></g><g transform="translate(-302,-78) scale(1,1)"><rect fill="#ffffff" stroke="none" x="944" y="576" width="75.46630859375" height="44"/></g><g transform="translate(-302,-78) scale(1,1)"><path fill="none" stroke="#000000" d="M 944 576 L 1019.46630859375 576 L 1019.46630859375 620 L 944 620 L 944 576 Z Z" stroke-miterlimit="10"/></g><g transform="translate(-302,-78) scale(1,1)"><path fill="none" stroke="#000000" d="M 944 601 L 1019.46630859375 601" stroke-miterlimit="10"/></g><g transform="translate(-302,-78) scale(1,1)"><path fill="none" stroke="#000000" d="M 944 611 L 1019.46630859375 611" stroke-miterlimit="10"/></g><g transform="translate(-302,-78) scale(1,1)"><g><path fill="none" stroke="none"/><text fill="#000000" stroke="none" font-family="Arial" font-size="13px" font-style="normal" font-weight="bold" text-decoration="none" x="950.658203125" y="595.5">JSplitPane</text></g></g><g transform="translate(-302,-78) scale(1,1)"><path fill="none" stroke="#000000" d="M 758 350 L 1080 352 L 1080 600 L 1020 599" stroke-miterlimit="10"/></g><g transform="translate(-302,-78) scale(1,1)"><path fill="#FFFFFF" stroke="none" d="M 1040.4628251120766 590.9208423438723 L 1020 599 L 1040.1822295639067 607.7565752340607"/></g><g transform="translate(-302,-78) scale(1,1)"><path fill="none" stroke="#000000" d="M 1040.4628251120766 590.9208423438723 L 1020 599 L 1040.1822295639067 607.7565752340607 L 1040.4628251120766 590.9208423438723" stroke-miterlimit="10"/></g><g transform="translate(-302,-78) scale(1,1)"><path fill="none" stroke="#000000" d="M 980 532 L 980 576" stroke-miterlimit="10"/></g><g transform="translate(-302,-78) scale(1,1)"><path fill="#FFFFFF" stroke="none" d="M 971.580964487968 555.6746502847517 L 980 576 L 988.419035512032 555.6746502847517"/></g><g transform="translate(-302,-78) scale(1,1)"><path fill="none" stroke="#000000" d="M 971.580964487968 555.6746502847517 L 980 576 L 988.419035512032 555.6746502847517 L 971.580964487968 555.6746502847517" stroke-miterlimit="10"/></g><g transform="translate(-302,-78) scale(1,1)"><rect fill="#C0C0C0" stroke="none" x="319" y="215" width="71.84814453125" height="44" opacity="0.2"/></g><g transform="translate(-302,-78) scale(1,1)"><rect fill="#ffffff" stroke="none" x="312" y="208" width="71.84814453125" height="44"/></g><g transform="translate(-302,-78) scale(1,1)"><path fill="none" stroke="#000000" d="M 312 208 L 383.84814453125 208 L 383.84814453125 252 L 312 252 L 312 208 Z Z" stroke-miterlimit="10"/></g><g transform="translate(-302,-78) scale(1,1)"><path fill="none" stroke="#000000" d="M 312 233 L 383.84814453125 233" stroke-miterlimit="10"/></g><g transform="translate(-302,-78) scale(1,1)"><path fill="none" stroke="#000000" d="M 312 243 L 383.84814453125 243" stroke-miterlimit="10"/></g><g transform="translate(-302,-78) scale(1,1)"><g><path fill="none" stroke="none"/><text fill="#000000" stroke="none" font-family="Arial" font-size="13px" font-style="normal" font-weight="bold" text-decoration="none" x="318.299560546875" y="227.5">JMenuBar</text></g></g><g transform="translate(-302,-78) scale(1,1)"><rect fill="#C0C0C0" stroke="none" x="1031" y="215" width="65.341796875" height="44" opacity="0.2"/></g><g transform="translate(-302,-78) scale(1,1)"><rect fill="#ffffff" stroke="none" x="1024" y="208" width="65.341796875" height="44"/></g><g transform="translate(-302,-78) scale(1,1)"><path fill="none" stroke="#000000" d="M 1024 208 L 1089.341796875 208 L 1089.341796875 252 L 1024 252 L 1024 208 Z Z" stroke-miterlimit="10"/></g><g transform="translate(-302,-78) scale(1,1)"><path fill="none" stroke="#000000" d="M 1024 233 L 1089.341796875 233" stroke-miterlimit="10"/></g><g transform="translate(-302,-78) scale(1,1)"><path fill="none" stroke="#000000" d="M 1024 243 L 1089.341796875 243" stroke-miterlimit="10"/></g><g transform="translate(-302,-78) scale(1,1)"><g><path fill="none" stroke="none"/><text fill="#000000" stroke="none" font-family="Arial" font-size="13px" font-style="normal" font-weight="bold" text-decoration="none" x="1030.661376953125" y="227.5">JToolBar</text></g></g><g transform="translate(-302,-78) scale(1,1)"><rect fill="#C0C0C0" stroke="none" x="471" y="591" width="83.42626953125" height="44" opacity="0.2"/></g><g transform="translate(-302,-78) scale(1,1)"><rect fill="#ffffff" stroke="none" x="464" y="584" width="83.42626953125" height="44"/></g><g transform="translate(-302,-78) scale(1,1)"><path fill="none" stroke="#000000" d="M 464 584 L 547.42626953125 584 L 547.42626953125 628 L 464 628 L 464 584 Z Z" stroke-miterlimit="10"/></g><g transform="translate(-302,-78) scale(1,1)"><path fill="none" stroke="#000000" d="M 464 609 L 547.42626953125 609" stroke-miterlimit="10"/></g><g transform="translate(-302,-78) scale(1,1)"><path fill="none" stroke="#000000" d="M 464 619 L 547.42626953125 619" stroke-miterlimit="10"/></g><g transform="translate(-302,-78) scale(1,1)"><g><path fill="none" stroke="none"/><text fill="#000000" stroke="none" font-family="Arial" font-size="13px" font-style="normal" font-weight="bold" text-decoration="none" x="471.029541015625" y="603.5">JScrollPane</text></g></g><g transform="translate(-302,-78) scale(1,1)"><path fill="none" stroke="#000000" d="M 368 532 L 368 606 L 464 606" stroke-miterlimit="10"/></g><g transform="translate(-302,-78) scale(1,1)"><path fill="#FFFFFF" stroke="none" d="M 443.6746502847517 614.419035512032 L 464 606 L 443.6746502847517 597.580964487968"/></g><g transform="translate(-302,-78) scale(1,1)"><path fill="none" stroke="#000000" d="M 443.6746502847517 614.419035512032 L 464 606 L 443.6746502847517 597.580964487968 L 443.6746502847517 614.419035512032" stroke-miterlimit="10"/></g><g transform="translate(-302,-78) scale(1,1)"><path fill="none" stroke="#000000" d="M 513 532 L 513 584" stroke-miterlimit="10"/></g><g transform="translate(-302,-78) scale(1,1)"><path fill="#FFFFFF" stroke="none" d="M 504.580964487968 563.6746502847517 L 513 584 L 521.419035512032 563.6746502847517"/></g><g transform="translate(-302,-78) scale(1,1)"><path fill="none" stroke="#000000" d="M 504.580964487968 563.6746502847517 L 513 584 L 521.419035512032 563.6746502847517 L 504.580964487968 563.6746502847517" stroke-miterlimit="10"/></g><g transform="translate(-302,-78) scale(1,1)"><path fill="none" stroke="#000000" d="M 696 532 L 696 606 L 547 606" stroke-miterlimit="10"/></g><g transform="translate(-302,-78) scale(1,1)"><path fill="#FFFFFF" stroke="none" d="M 567.3253497152483 597.580964487968 L 547 606 L 567.3253497152483 614.419035512032"/></g><g transform="translate(-302,-78) scale(1,1)"><path fill="none" stroke="#000000" d="M 567.3253497152483 597.580964487968 L 547 606 L 567.3253497152483 614.419035512032 L 567.3253497152483 597.580964487968" stroke-miterlimit="10"/></g><g transform="translate(-302,-78) scale(1,1)"><path fill="none" stroke="#000000" d="M 952 230 L 1023 230" stroke-miterlimit="10"/></g><g transform="translate(-302,-78) scale(1,1)"><path fill="#FFFFFF" stroke="none" d="M 1002.6746502847517 238.41903551203197 L 1023 230 L 1002.6746502847517 221.58096448796803"/></g><g transform="translate(-302,-78) scale(1,1)"><path fill="none" stroke="#000000" d="M 1002.6746502847517 238.41903551203197 L 1023 230 L 1002.6746502847517 221.58096448796803 L 1002.6746502847517 238.41903551203197" stroke-miterlimit="10"/></g><g transform="translate(-302,-78) scale(1,1)"><path fill="none" stroke="#000000" d="M 439 230 L 385 230" stroke-miterlimit="10"/></g><g transform="translate(-302,-78) scale(1,1)"><path fill="#FFFFFF" stroke="none" d="M 405.3253497152483 221.58096448796803 L 385 230 L 405.3253497152483 238.41903551203197"/></g><g transform="translate(-302,-78) scale(1,1)"><path fill="none" stroke="#000000" d="M 405.3253497152483 221.58096448796803 L 385 230 L 405.3253497152483 238.41903551203197 L 405.3253497152483 221.58096448796803" stroke-miterlimit="10"/></g><g transform="translate(-302,-78) scale(1,1)"><path fill="none" stroke="#000000" d="M 702 253 L 702 327" stroke-miterlimit="10"/></g><g transform="translate(-302,-78) scale(1,1)"><path fill="none" stroke="#000000" d="M 697.790482243984 316.83732514237585 L 702 327 L 706.209517756016 316.83732514237585" stroke-miterlimit="10"/></g><g transform="translate(-302,-78) scale(1,1)"><g><path fill="none" stroke="none"/><text fill="#000000" stroke="none" font-family="Arial" font-size="13px" font-style="normal" font-weight="normal" text-decoration="none" x="712.13134765625" y="295.5">-enthält</text></g></g><g transform="translate(-302,-78) scale(1,1)"><g><path fill="none" stroke="none"/><text fill="#000000" stroke="none" font-family="Arial" font-size="13px" font-style="normal" font-weight="normal" text-decoration="none" x="685.5" y="280.5">1</text></g></g><g transform="translate(-302,-78) scale(1,1)"><g><path fill="none" stroke="none"/><text fill="#000000" stroke="none" font-family="Arial" font-size="13px" font-style="normal" font-weight="normal" text-decoration="none" x="685.5" y="311.5">1</text></g></g><g transform="translate(-302,-78) scale(1,1)"><path fill="none" stroke="#000000" d="M 648 352 L 376 352 L 376 488" stroke-miterlimit="10"/></g><g transform="translate(-302,-78) scale(1,1)"><path fill="none" stroke="#000000" d="M 371.790482243984 477.83732514237585 L 376 488 L 380.209517756016 477.83732514237585" stroke-miterlimit="10"/></g><g transform="translate(-302,-78) scale(1,1)"><g><path fill="none" stroke="none"/><text fill="#000000" stroke="none" font-family="Arial" font-size="13px" font-style="normal" font-weight="normal" text-decoration="none" x="319.5" y="404.5">-enthält</text></g></g><g transform="translate(-302,-78) scale(1,1)"><g><path fill="none" stroke="none"/><text fill="#000000" stroke="none" font-family="Arial" font-size="13px" font-style="normal" font-weight="normal" text-decoration="none" x="622.5" y="345.5">1</text></g></g><g transform="translate(-302,-78) scale(1,1)"><g><path fill="none" stroke="none"/><text fill="#000000" stroke="none" font-family="Arial" font-size="13px" font-style="normal" font-weight="normal" text-decoration="none" x="359.5" y="472.5">1</text></g></g><g transform="translate(-302,-78) scale(1,1)"><path fill="none" stroke="#000000" d="M 648 360 L 512 360 L 512 488" stroke-miterlimit="10"/></g><g transform="translate(-302,-78) scale(1,1)"><path fill="none" stroke="#000000" d="M 507.790482243984 477.83732514237585 L 512 488 L 516.209517756016 477.83732514237585" stroke-miterlimit="10"/></g><g transform="translate(-302,-78) scale(1,1)"><g><path fill="none" stroke="none"/><text fill="#000000" stroke="none" font-family="Arial" font-size="13px" font-style="normal" font-weight="normal" text-decoration="none" x="520.13134765625" y="403.5">-enthält</text></g></g><g transform="translate(-302,-78) scale(1,1)"><g><path fill="none" stroke="none"/><text fill="#000000" stroke="none" font-family="Arial" font-size="13px" font-style="normal" font-weight="normal" text-decoration="none" x="620.385009765625" y="380.5">1</text></g></g><g transform="translate(-302,-78) scale(1,1)"><g><path fill="none" stroke="none"/><text fill="#000000" stroke="none" font-family="Arial" font-size="13px" font-style="normal" font-weight="normal" text-decoration="none" x="495.5" y="472.5">1</text></g></g><g transform="translate(-302,-78) scale(1,1)"><path fill="none" stroke="#000000" d="M 696 372 L 696 488" stroke-miterlimit="10"/></g><g transform="translate(-302,-78) scale(1,1)"><path fill="none" stroke="#000000" d="M 691.790482243984 477.83732514237585 L 696 488 L 700.209517756016 477.83732514237585" stroke-miterlimit="10"/></g><g transform="translate(-302,-78) scale(1,1)"><g><path fill="none" stroke="none"/><text fill="#000000" stroke="none" font-family="Arial" font-size="13px" font-style="normal" font-weight="normal" text-decoration="none" x="632.13134765625" y="427.5">-enthält</text></g></g><g transform="translate(-302,-78) scale(1,1)"><g><path fill="none" stroke="none"/><text fill="#000000" stroke="none" font-family="Arial" font-size="13px" font-style="normal" font-weight="normal" text-decoration="none" x="679.5" y="399.5">1</text></g></g><g transform="translate(-302,-78) scale(1,1)"><g><path fill="none" stroke="none"/><text fill="#000000" stroke="none" font-family="Arial" font-size="13px" font-style="normal" font-weight="normal" text-decoration="none" x="679.5" y="472.5">1</text></g></g><g transform="translate(-302,-78) scale(1,1)"><path fill="none" stroke="#000000" d="M 757 360 L 980 360 L 980 488" stroke-miterlimit="10"/></g><g transform="translate(-302,-78) scale(1,1)"><path fill="none" stroke="#000000" d="M 975.790482243984 477.83732514237585 L 980 488 L 984.209517756016 477.83732514237585" stroke-miterlimit="10"/></g><g transform="translate(-302,-78) scale(1,1)"><g><path fill="none" stroke="none"/><text fill="#000000" stroke="none" font-family="Arial" font-size="13px" font-style="normal" font-weight="normal" text-decoration="none" x="960.13134765625" y="427.5">-enthält</text></g></g><g transform="translate(-302,-78) scale(1,1)"><g><path fill="none" stroke="none"/><text fill="#000000" stroke="none" font-family="Arial" font-size="13px" font-style="normal" font-weight="normal" text-decoration="none" x="775.5" y="379.5">1</text></g></g><g transform="translate(-302,-78) scale(1,1)"><g><path fill="none" stroke="none"/><text fill="#000000" stroke="none" font-family="Arial" font-size="13px" font-style="normal" font-weight="normal" text-decoration="none" x="963.5" y="472.5">1</text></g></g><g transform="translate(-302,-78) scale(1,1)"><rect fill="#C0C0C0" stroke="none" x="807" y="495" width="58.84814453125" height="44" opacity="0.2"/></g><g transform="translate(-302,-78) scale(1,1)"><rect fill="#ffffff" stroke="none" x="800" y="488" width="58.84814453125" height="44"/></g><g transform="translate(-302,-78) scale(1,1)"><path fill="none" stroke="#000000" d="M 800 488 L 858.84814453125 488 L 858.84814453125 532 L 800 532 L 800 488 Z Z" stroke-miterlimit="10"/></g><g transform="translate(-302,-78) scale(1,1)"><path fill="none" stroke="#000000" d="M 800 513 L 858.84814453125 513" stroke-miterlimit="10"/></g><g transform="translate(-302,-78) scale(1,1)"><path fill="none" stroke="#000000" d="M 800 523 L 858.84814453125 523" stroke-miterlimit="10"/></g><g transform="translate(-302,-78) scale(1,1)"><g><path fill="none" stroke="none"/><text fill="#000000" stroke="none" font-family="Arial" font-size="13px" font-style="normal" font-weight="bold" text-decoration="none" x="805.937744140625" y="507.5">PdfArea</text></g></g><g transform="translate(-302,-78) scale(1,1)"><rect fill="#C0C0C0" stroke="none" x="807" y="583" width="56" height="44" opacity="0.2"/></g><g transform="translate(-302,-78) scale(1,1)"><rect fill="#ffffff" stroke="none" x="800" y="576" width="56" height="44"/></g><g transform="translate(-302,-78) scale(1,1)"><path fill="none" stroke="#000000" d="M 800 576 L 856 576 L 856 620 L 800 620 L 800 576 Z Z" stroke-miterlimit="10"/></g><g transform="translate(-302,-78) scale(1,1)"><path fill="none" stroke="#000000" d="M 800 601 L 856 601" stroke-miterlimit="10"/></g><g transform="translate(-302,-78) scale(1,1)"><path fill="none" stroke="#000000" d="M 800 611 L 856 611" stroke-miterlimit="10"/></g><g transform="translate(-302,-78) scale(1,1)"><g><path fill="none" stroke="none"/><text fill="#000000" stroke="none" font-family="Arial" font-size="13px" font-style="normal" font-weight="bold" text-decoration="none" x="808.12548828125" y="595.5">JPanel</text></g></g><g transform="translate(-302,-78) scale(1,1)"><path fill="none" stroke="#000000" d="M 829 533 L 828 575" stroke-miterlimit="10"/></g><g transform="translate(-302,-78) scale(1,1)"><path fill="#FFFFFF" stroke="none" d="M 820.0671496077304 554.4800125571708 L 828 575 L 836.9004499641751 554.8808054228004"/></g><g transform="translate(-302,-78) scale(1,1)"><path fill="none" stroke="#000000" d="M 820.0671496077304 554.4800125571708 L 828 575 L 836.9004499641751 554.8808054228004 L 820.0671496077304 554.4800125571708" stroke-miterlimit="10"/></g><g transform="translate(-302,-78) scale(1,1)"><path fill="none" stroke="#000000" d="M 744 372 L 744 416 L 832 416 L 832 488" stroke-miterlimit="10"/></g><g transform="translate(-302,-78) scale(1,1)"><path fill="none" stroke="#000000" d="M 827.790482243984 477.83732514237585 L 832 488 L 836.209517756016 477.83732514237585" stroke-miterlimit="10"/></g><g transform="translate(-302,-78) scale(1,1)"><g><path fill="none" stroke="none"/><text fill="#000000" stroke="none" font-family="Arial" font-size="13px" font-style="normal" font-weight="normal" text-decoration="none" x="766.5" y="407.5">-enthält</text></g></g><g transform="translate(-302,-78) scale(1,1)"><g><path fill="none" stroke="none"/><text fill="#000000" stroke="none" font-family="Arial" font-size="13px" font-style="normal" font-weight="normal" text-decoration="none" x="727.5" y="399.5">1</text></g></g><g transform="translate(-302,-78) scale(1,1)"><g><path fill="none" stroke="none"/><text fill="#000000" stroke="none" font-family="Arial" font-size="13px" font-style="normal" font-weight="normal" text-decoration="none" x="815.5" y="472.5">1</text></g></g><g transform="translate(-302,-78) scale(1,1)"><path fill="none" stroke="#000000" d="M 663 230 L 574 230" stroke-miterlimit="10"/></g><g transform="translate(-302,-78) scale(1,1)"><path fill="none" stroke="#000000" d="M 584.1626748576241 225.790482243984 L 574 230 L 584.1626748576241 234.209517756016" stroke-miterlimit="10"/></g><g transform="translate(-302,-78) scale(1,1)"><g><path fill="none" stroke="none"/><text fill="#000000" stroke="none" font-family="Arial" font-size="13px" font-style="normal" font-weight="normal" text-decoration="none" x="596.5" y="251.5">-besitzt</text></g></g><g transform="translate(-302,-78) scale(1,1)"><g><path fill="none" stroke="none"/><text fill="#000000" stroke="none" font-family="Arial" font-size="13px" font-style="normal" font-weight="normal" text-decoration="none" x="637.5" y="223.5">1</text></g></g><g transform="translate(-302,-78) scale(1,1)"><g><path fill="none" stroke="none"/><text fill="#000000" stroke="none" font-family="Arial" font-size="13px" font-style="normal" font-weight="normal" text-decoration="none" x="591.5" y="223.5">1</text></g></g><g transform="translate(-302,-78) scale(1,1)"><path fill="none" stroke="#000000" d="M 743 230 L 823 230" stroke-miterlimit="10"/></g><g transform="translate(-302,-78) scale(1,1)"><path fill="none" stroke="#000000" d="M 812.8373251423759 234.209517756016 L 823 230 L 812.8373251423758 225.790482243984" stroke-miterlimit="10"/></g><g transform="translate(-302,-78) scale(1,1)"><g><path fill="none" stroke="none"/><text fill="#000000" stroke="none" font-family="Arial" font-size="13px" font-style="normal" font-weight="normal" text-decoration="none" x="759.5" y="252.5">-besitzt</text></g></g><g transform="translate(-302,-78) scale(1,1)"><g><path fill="none" stroke="none"/><text fill="#000000" stroke="none" font-family="Arial" font-size="13px" font-style="normal" font-weight="normal" text-decoration="none" x="760.5" y="220.5">1</text></g></g><g transform="translate(-302,-78) scale(1,1)"><g><path fill="none" stroke="none"/><text fill="#000000" stroke="none" font-family="Arial" font-size="13px" font-style="normal" font-weight="normal" text-decoration="none" x="797.5" y="219.5">1</text></g></g></g></svg>